<svg xmlns="http://www.w3.org/2000/svg" width="111.486" height="124.176" viewBox="0 0 111.486 124.176"><path d="M416.983,602.735h-3.545v31.62s22.881,7.82,45.119,0v-31.62Z" transform="translate(-380.265 -513.655)" fill="#00989f"/><ellipse cx="22.559" cy="3.57" rx="22.559" ry="3.57" transform="translate(33.173 85.68)" fill="#3f3d56"/><ellipse cx="22.559" cy="3.57" rx="22.559" ry="3.57" transform="translate(33.173 85.68)" fill="#00989f" opacity="0.1"/><path d="M561.049,118.074c-5.61,21.877-24.824,35.426-24.824,35.426s-10.119-21.921-4.51-43.8,24.824-35.426,24.824-35.426S566.658,96.2,561.049,118.074Z" transform="translate(-479.789 -66.773)" fill="#00989f"/><path d="M383.419,118.074c5.61,21.877,24.824,35.426,24.824,35.426s10.119-21.921,4.51-43.8-24.824-35.426-24.824-35.426S377.809,96.2,383.419,118.074Z" transform="translate(-353.192 -66.773)" fill="#8ed2d5"/><path d="M225.191,233.662c15.393,15.809,17.273,40.11,17.273,40.11s-23.077-1.329-38.47-17.138-17.273-40.11-17.273-40.11S209.8,217.853,225.191,233.662Z" transform="translate(-186.721 -187.062)" fill="#00989f"/><path d="M584.961,233.662c-15.393,15.809-17.273,40.11-17.273,40.11s23.077-1.329,38.47-17.138,17.273-40.11,17.273-40.11S600.354,217.853,584.961,233.662Z" transform="translate(-511.945 -187.062)" fill="#00989f"/><ellipse cx="7.09" cy="7.48" rx="7.09" ry="7.48" transform="translate(48.642)" fill="#8ed2d5"/><path d="M276.58,396.058a6.023,6.023,0,0,0,2.249,3.1,6.381,6.381,0,0,0,.429-3.874,6.023,6.023,0,0,0-2.249-3.1A6.38,6.38,0,0,0,276.58,396.058Z" transform="translate(-263.305 -335.606)" fill="#8ed2d5"/><path d="M340.742,470.035a6.386,6.386,0,0,0,.351,3.883,6,6,0,0,0,2.311-3.045,6.386,6.386,0,0,0-.351-3.883A6,6,0,0,0,340.742,470.035Z" transform="translate(-318.057 -398.865)" fill="#8ed2d5"/><path d="M226.58,516.059a6.023,6.023,0,0,0,2.249,3.1,6.381,6.381,0,0,0,.429-3.874,6.023,6.023,0,0,0-2.249-3.1A6.379,6.379,0,0,0,226.58,516.059Z" transform="translate(-220.621 -437.083)" fill="#8ed2d5"/></svg>