<svg xmlns="http://www.w3.org/2000/svg" width="152.735" height="130.582" viewBox="0 0 152.735 130.582"><path d="M766.256,515.091h-.385v-42.1a1.15,1.15,0,0,0-.426-.9l.243-.3a1.534,1.534,0,0,1,.567,1.193Z" transform="translate(-651.352 -402.585)" fill="#3f3d56"/><path d="M565.922,135.23a3.38,3.38,0,0,1,.221.708C566.036,135.567,565.951,135.315,565.922,135.23Z" transform="translate(-490.211 -130.761)" fill="#3f3d56"/><path d="M582.459,196.37a5.63,5.63,0,0,1-.287,1.223Z" transform="translate(-503.335 -180.139)" fill="#3f3d56"/><path d="M286.59,168.3a157.17,157.17,0,0,1-20.427,8.335c2.26-.589,8.839-1.381,19.033,4.978,12.808,7.989,26.5,2.662,26.5,2.662s-3.043,5.834-9.511,6.213-23.332-10.27-29.038-7.227-8.37-.762-10.653,6.848-6.465,28.4-1.647,40.07l4.817,11.665H238.277s9.891-26.375,4.438-42.605c-3.053-9.089-7.339-15.672-8.937-19.017-.8-1.675-.929-2.537.11-2.495a10.059,10.059,0,0,1,3,.97s-6.594-6.467-8.749-6.467-12.3-1.014-15.6-4.438c0,0-4.692-3.3-13.062,4.819s-6.34,8.116-13.821,7.481a32.959,32.959,0,0,1-13.312-4.309c.214.087,8.814,3.524,14.072,1.774,5.327-1.776,9.891-8.5,14.583-10.778s7.481-5.327,13.821-2.029L210.64,154.9l-1.145-2.7,0,0s-1.4-18.513-4.059-19.781-1.014-4.565-5.959-5.2c0,0,6.086-.762,7.227,3.424s9,26.756,9,26.756,4.817,9.636,10.143,7.354-2.029-15.089-2.029-15.089l-9.13-4.186s6.848-.254,11.032,3.678,4.438,16.611,4.438,16.611,10.524,1.522,13.062,7.229c0,0,1.649-5.073-1.522-8.116a14.647,14.647,0,0,1-2.428-3.641,32.167,32.167,0,0,1-3.143-19.375c.471-3.243.762-6.415.244-7.164-1.141-1.649-5.96-11.792-6.34-14.456s.381-8.241.381-8.241.127,6.846,1.649,9,5.833,12.808,5.833,12.808,0,13.441,3.551,20.035,10.4,13.948,10.018,18.767V175.4s7.608-7.227,7.1-9.638-1.141-8.116-5.959-11.538-7.989-8.878-4.565-16.74a77.7,77.7,0,0,0,3.138-8.031l-2,8.539s-1.268,8.749,2.283,11.792l.027.023a93.9,93.9,0,0,1,8.214,8.6l-.013-.244-1-18.015.219.481,1.581,3.466,1.5,3.28s7.1-9.13,15.47-12.173,13.568-13.695,13.568-13.695l7.1-5.581-5.834,6.975s-1.776,8.241-11.792,14.075-16.484,14.454-16.865,19.781-.762,10.018-.762,10.018,18.767-.635,22.951-8.878,7.61-8.622,7.61-8.622l-2.41,7.1-2.662,6.086s10.905.254,16.611,6.721,19.908,8.37,19.908,8.37l-7.987,2.154a73.455,73.455,0,0,1-14.837-7.227C294.833,167.794,295.593,163.61,286.59,168.3Z" transform="translate(-172.342 -111.999)" fill="#00989f"/><path d="M678.007,314.74a43.07,43.07,0,0,1-3.074,9.6c-4.184,8.243-22.951,8.878-22.951,8.878s.088-1.089.223-2.807c4.765-.392,17.79-2.068,21.189-8.764.312-.612.6-1.27.873-1.962Z" transform="translate(-559.716 -275.739)" opacity="0.1"/><path d="M593.376,281.312a93.685,93.685,0,0,0-8.241-8.624,6.175,6.175,0,0,1-1.7-2.67c-.031-.085-.06-.171-.089-.258.083.081.166.16.254.235a90.6,90.6,0,0,1,8.035,8.379l.206.244-.987-17.778,1.581,3.466Z" transform="translate(-504.28 -232.208)" opacity="0.1"/><path d="M647.8,161.593a26.875,26.875,0,0,1-.433,4.979s7.1-9.126,15.465-12.171c.494-.313,1-.621,1.51-.92,10.018-5.833,11.793-14.075,11.793-14.075l5.833-6.974-7.1,5.579s-5.2,10.652-13.568,13.695C655.6,153.78,650.482,158.682,647.8,161.593Z" transform="translate(-555.992 -128.501)" opacity="0.1"/><path d="M592.373,375.326v2.79s7.608-7.228,7.1-9.637c-.388-1.843-.852-5.613-3.2-8.816a28.208,28.208,0,0,1,1.665,6.123c.364,1.728-3.445,5.933-5.63,8.174A5.785,5.785,0,0,1,592.373,375.326Z" transform="translate(-511.518 -312.02)" opacity="0.1"/><path d="M539.6,341.567c.06.129.122.255.188.377,1.944,3.611,4.876,7.45,7.069,10.976C545.089,349.428,542,345.435,539.6,341.567Z" transform="translate(-468.955 -297.406)" opacity="0.1"/><path d="M686.594,454.084a36.775,36.775,0,0,0-10.649-4.717c-3.055,1.15-5.57,2.007-6.835,2.428,2.269-.587,8.843-1.368,19.023,4.982a30.836,30.836,0,0,0,21.46,3.932,13.286,13.286,0,0,0,3.5-3.962S699.4,462.073,686.594,454.084Z" transform="translate(-573.549 -384.468)" opacity="0.1"/><path d="M561.773,224.038a12.559,12.559,0,0,1-.016-8.98,27.416,27.416,0,0,1,.219-3.788l2-8.541a77.356,77.356,0,0,1-3.138,8.034C558.394,216.366,559.3,220.745,561.773,224.038Z" transform="translate(-484.943 -185.275)" opacity="0.1"/><path d="M799.553,382.1c-3.957-4.485-10.414-5.981-14-6.477l-1.072,2.45s10.905.254,16.611,6.721c3.164,3.586,8.941,5.768,13.46,7l4.91-1.325S805.259,388.563,799.553,382.1Z" transform="translate(-666.726 -324.907)" opacity="0.1"/><path d="M416.482,336.478c5.326-2.283-2.029-15.09-2.029-15.09l-.2-.092c1.834,3.869,4.493,10.86.691,12.489-3.557,1.525-6.888-2.268-8.708-4.956l.1.294S411.156,338.76,416.482,336.478Z" transform="translate(-361.242 -281.034)" opacity="0.1"/><path d="M494.414,402.527s1.6-4.947-1.41-8a10.305,10.305,0,0,1-.129,5.308c-1.962-4.414-8.7-6.324-11.656-6.962.115,1.47.134,2.428.134,2.428S491.878,396.82,494.414,402.527Z" transform="translate(-421.802 -338.84)" opacity="0.1"/><path d="M583.172,197.6a5.625,5.625,0,0,0,.286-1.223Z" transform="translate(-504.142 -180.142)" opacity="0.1"/><path d="M188.864,381.464l.077-.024c5.326-1.775,9.891-8.5,14.583-10.778s7.481-5.326,13.822-2.029a25.586,25.586,0,0,0-3.259-7.523,29.582,29.582,0,0,1,1.72,4.83c-6.34-3.3-9.13-.254-13.822,2.029s-9.257,9-14.583,10.778-14.075-1.775-14.075-1.775a32.909,32.909,0,0,0,13.314,4.311C187.5,381.356,188.227,381.419,188.864,381.464Z" transform="translate(-173.137 -313.189)" opacity="0.1"/><path d="M357.189,251.782l-.585.01-1.145-2.7.19,0s-.881-11.677-2.578-17.119c.021.01.038.021.058.031C355.792,233.268,357.189,251.782,357.189,251.782Z" transform="translate(-318.306 -208.891)" opacity="0.1"/><path d="M518.567,570.887c2.323-7.122,7.911-26.818,3.512-39.913a52.2,52.2,0,0,0-5.149-11.562,65.384,65.384,0,0,1,3.611,8.869c5.453,16.231-4.438,42.606-4.438,42.606Z" transform="translate(-449.974 -441.039)" opacity="0.1"/><path d="M493.88,457.346a14.1,14.1,0,0,0-4.836-1.168c-.8-1.676-.929-2.537.11-2.495.289.052.579.113.868.185C492.06,455.561,493.88,457.346,493.88,457.346Z" transform="translate(-427.608 -387.954)" opacity="0.1"/><path d="M338.4,211.727a3.315,3.315,0,0,0,.521.667,3.743,3.743,0,0,0-.521-.667Z" transform="translate(-306.454 -192.542)" opacity="0.1"/><path d="M406.065,292.379a6.181,6.181,0,0,1,.55.593,9.5,9.5,0,0,0-2.089-3.286c-4.185-3.931-11.032-3.677-11.032-3.677l8.587,3.936A12.263,12.263,0,0,1,406.065,292.379Z" transform="translate(-350.952 -252.532)" opacity="0.1"/><path d="M479.149,134.695c.517.747.227,3.92-.246,7.164a32.164,32.164,0,0,0,3.144,19.374,22.56,22.56,0,0,0,1.351,2.319,32.2,32.2,0,0,1-2.957-19c.472-3.244.763-6.416.246-7.164-1.141-1.648-5.96-11.793-6.34-14.456a18.452,18.452,0,0,1-.079-3.111A32.476,32.476,0,0,1,473.189,112s-.761,5.579-.38,8.242S478.007,133.046,479.149,134.695Z" transform="translate(-414.923 -111.997)" opacity="0.1"/><path d="M567.09,135.8a3.63,3.63,0,0,0-.23-.73S566.957,135.342,567.09,135.8Z" transform="translate(-490.968 -130.63)" opacity="0.1"/><path d="M318.4,193.594a6.681,6.681,0,0,1,3.384,1.275c-.064-.216-.12-.41-.164-.573-1.141-4.185-7.228-3.424-7.228-3.424C317.142,191.225,317.853,192.4,318.4,193.594Z" transform="translate(-287.066 -175.656)" opacity="0.1"/><path d="M950.819,736.7a10.743,10.743,0,0,0-1.373,6.589,9.249,9.249,0,0,0,6.848-10.5A10.743,10.743,0,0,0,950.819,736.7Z" transform="translate(-880.376 -612.792)" fill="#8ed2d5"/><path d="M943.669,729.061a10.742,10.742,0,0,1-2.717,6.157,9.249,9.249,0,0,1,.541-12.526A10.743,10.743,0,0,1,943.669,729.061Z" transform="translate(-871.805 -604.637)" fill="#00989f"/><path d="M791.088,634.095s2.176-2.283,3.067-1.824-2.561,2.5-2.561,2.5Z" transform="translate(-672.063 -532.139)" fill="#ffb9b9"/><path d="M791.088,634.095s2.176-2.283,3.067-1.824-2.561,2.5-2.561,2.5Z" transform="translate(-672.063 -532.139)" opacity="0.1"/><path d="M753.948,615.708a5.4,5.4,0,0,0-.591,2.979c.209,1.546,2.124,6.505,2.774,6.417s5.471-3.64,5.471-3.64l-.919-1.284-3.522,2.134S756.626,614.683,753.948,615.708Z" transform="translate(-641.562 -518.735)" fill="#d0cde1"/><path d="M794.077,622.839l-5.49,3.016a.261.261,0,0,1-.384-.113l-1.345-2.811a.351.351,0,0,1,.18-.421l4.558-2.349a.266.266,0,0,1,.349.067l2.277,2.145a.338.338,0,0,1-.144.468Z" transform="translate(-668.632 -522.376)" fill="#2f2e41"/><path d="M622.85,512l-5.147,2.942-1.37-2.468,4.415-2.4Z" transform="translate(-497.773 -411.952)" fill="#00989f"/><ellipse cx="0.076" cy="0.065" rx="0.076" ry="0.065" transform="translate(120.613 99.174) rotate(-50.158)" fill="#f2f2f2"/><ellipse cx="0.051" cy="0.043" rx="0.051" ry="0.043" transform="translate(122.556 101.694) rotate(-50.158)" fill="#f2f2f2"/><path d="M753.948,615.708a5.4,5.4,0,0,0-.591,2.979c.209,1.546,2.124,6.505,2.774,6.417s5.471-3.64,5.471-3.64l-.919-1.284-3.522,2.134S756.626,614.683,753.948,615.708Z" transform="translate(-641.562 -518.735)" opacity="0.1"/><path d="M783.44,637.975s2.463-1.97,3.284-1.4-2.873,2.135-2.873,2.135Z" transform="translate(-665.886 -535.583)" fill="#ffb9b9"/><circle cx="2.381" cy="2.381" r="2.381" transform="translate(111.89 89.75)" fill="#ffb9b9"/><path d="M798.312,677.134s2.545.328,2.463,1.888a77.054,77.054,0,0,1-1.97,8.045l-.164,2.545s.164,4.269-.328,4.187-1.642-3.037-1.642-3.037-1.4-.9-.739-1.724,1.149-.739.985-1.642a17.938,17.938,0,0,1,.41-5.828c.493-1.149.78-1.783.78-1.783l-1.6-.1Z" transform="translate(-675.833 -568.421)" fill="#ffb9b9"/><path d="M798.312,677.134s2.545.328,2.463,1.888a77.054,77.054,0,0,1-1.97,8.045l-.164,2.545s.164,4.269-.328,4.187-1.642-3.037-1.642-3.037-1.4-.9-.739-1.724,1.149-.739.985-1.642a17.938,17.938,0,0,1,.41-5.828c.493-1.149.78-1.783.78-1.783l-1.6-.1Z" transform="translate(-675.833 -568.421)" opacity="0.1"/><path d="M802.66,679.268s2.463.575,2.709,2.216,1.478,6.485,1.478,6.485l1.313,3.037s2.052,3.694,1.149,3.612-2.134-1.888-2.545-1.888-1.642-.492-1.56-.821a9.52,9.52,0,0,1,.657-1.313l-1.986-3.46a8.4,8.4,0,0,1-.861-2.132,14.947,14.947,0,0,1-.436-2.125c0-.575-1.642-.821-1.642-.821Z" transform="translate(-680.016 -570.144)" fill="#ffb9b9"/><path d="M734.182,651.956l1.149,3.284s1.806.492,3.119.9,3.776-.164,4.023.821a3.533,3.533,0,0,1-1.231,3.119c-.739.411-1.149.821-3.53.164a50.334,50.334,0,0,0-8.045-.821,4.117,4.117,0,0,1-1.806.575c-1.067.082-1.313.164-1.642-.082s.164-.246.328-.9.246-.411.985-1.149,1.313-2.955,1.724-3.694a9.045,9.045,0,0,0,.657-2.216Z" transform="translate(-619.583 -548.086)" fill="#2f2e41"/><path d="M752.749,594.305a2.4,2.4,0,0,0-.985,1.888c0,1.231-2.463-1.313-2.463-1.313s1.313-1.642,1.313-2.134S752.749,594.305,752.749,594.305Z" transform="translate(-638.314 -500.204)" fill="#ffb9b9"/><path d="M742.487,598.613s1.478.575,1.806,1.4a19,19,0,0,0,1.56,2.545s1.724,1.806,1.149,3.776-1.067,2.463-1.067,2.791-.821.9-1.478.821-3.12-.41-3.284-.739-1.149-5.008-.493-6.731a39.819,39.819,0,0,1,1.806-3.858Z" transform="translate(-631.172 -505.005)" fill="#8ed2d5"/><path d="M743.872,573.413a1.888,1.888,0,0,0,1.492-.549c.248-.191.521-.464.445-.771-.067-.273-.389-.427-.436-.7-.032-.193.08-.38.089-.575a.813.813,0,0,0-.478-.7c-.26-.14-.554-.2-.821-.323a7.185,7.185,0,0,0-1.18-.646c-.594-.151-1.2.17-1.81.212-.37.025-.744-.053-1.11.008a1.584,1.584,0,0,0-1.269,1.5,1.277,1.277,0,0,1-.108.76,1.151,1.151,0,0,1-.209.189,2.527,2.527,0,0,0-.818,1.88c-.014.348.059.761.368.909a1.365,1.365,0,0,0,.515.072.537.537,0,0,1,.454.217c.141.248-.07.614.114.831a.417.417,0,0,0,.569-.03c.161-.139.262-.338.415-.486a1.877,1.877,0,0,1,1.147-.384.581.581,0,0,0,.336-.11.519.519,0,0,0,.138-.283,1.753,1.753,0,0,0,0-.743.412.412,0,0,1-.009-.235.334.334,0,0,1,.12-.135,1.655,1.655,0,0,1,1.024-.414C743.217,572.957,743.5,573.326,743.872,573.413Z" transform="translate(-628.911 -481.174)" fill="#2f2e41"/><path d="M748.578,613.808a5.4,5.4,0,0,0-.985,2.873c0,1.56,1.231,6.731,1.888,6.731s5.911-2.873,5.911-2.873l-.739-1.4-3.776,1.642S751.369,613.151,748.578,613.808Z" transform="translate(-636.935 -517.244)" fill="#8ed2d5"/><rect width="18.852" height="3.655" transform="translate(103.938 111.381)" fill="#00989f"/><path d="M755.2,516.363a1.541,1.541,0,0,1-1.539-1.539V471.542a1.539,1.539,0,0,1,2.51-1.193l-.243.3a1.154,1.154,0,0,0-1.883.9v43.282a1.155,1.155,0,0,0,1.154,1.154Z" transform="translate(-641.833 -401.135)" fill="#3f3d56"/><ellipse cx="0.192" cy="0.577" rx="0.192" ry="0.577" transform="translate(109.583 90.277) rotate(-38.768)" fill="#00989f"/><path d="M654.819,736.7a10.743,10.743,0,0,0-1.373,6.589,9.249,9.249,0,0,0,6.848-10.5A10.743,10.743,0,0,0,654.819,736.7Z" transform="translate(-560.846 -612.792)" fill="#8ed2d5"/><path d="M647.669,729.061a10.742,10.742,0,0,1-2.717,6.157,9.249,9.249,0,0,1,.541-12.526A10.743,10.743,0,0,1,647.669,729.061Z" transform="translate(-552.275 -604.637)" fill="#00989f"/><path d="M497.921,730.747a10.742,10.742,0,0,0,4,5.412,9.249,9.249,0,0,0-3.274-12.1A10.742,10.742,0,0,0,497.921,730.747Z" transform="translate(-435.07 -605.738)" fill="#8ed2d5"/><path d="M479.943,744.112a10.742,10.742,0,0,1,2.784,6.128,9.249,9.249,0,0,1-8.984-8.746A10.743,10.743,0,0,1,479.943,744.112Z" transform="translate(-415.764 -619.822)" fill="#00989f"/><path d="M442.645,257.135a10.742,10.742,0,0,1-2.835,6.1,9.249,9.249,0,0,1,.781-12.514A10.743,10.743,0,0,1,442.645,257.135Z" transform="translate(-386.688 -224.039)" fill="#8ed2d5"/><path d="M293.564,164.787a10.742,10.742,0,0,1,4,5.415,9.249,9.249,0,0,1-10.606-6.687A10.742,10.742,0,0,1,293.564,164.787Z" transform="translate(-264.908 -153.536)" fill="#8ed2d5"/><path d="M259.564,383.787a10.742,10.742,0,0,1,4,5.415,9.249,9.249,0,0,1-10.606-6.687A10.742,10.742,0,0,1,259.564,383.787Z" transform="translate(-237.448 -330.408)" fill="#8ed2d5"/><path d="M575.859,174.426a10.742,10.742,0,0,1-3.967,5.437,9.249,9.249,0,0,1,3.2-12.123A10.742,10.742,0,0,1,575.859,174.426Z" transform="translate(-494.202 -157.017)" fill="#8ed2d5"/><path d="M720.51,187.876a10.743,10.743,0,0,1-4.216,5.246,9.249,9.249,0,0,1,3.759-11.961A10.742,10.742,0,0,1,720.51,187.876Z" transform="translate(-610.992 -167.857)" fill="#8ed2d5"/><path d="M874.993,379.482a10.742,10.742,0,0,1-5.461,3.934,9.248,9.248,0,0,1,6.81-10.527A10.743,10.743,0,0,1,874.993,379.482Z" transform="translate(-735.361 -322.701)" fill="#8ed2d5"/><path d="M866,206" transform="translate(-732.564 -187.917)" fill="#3f3d56"/></svg>