<svg xmlns="http://www.w3.org/2000/svg" width="89.502" height="123.772" viewBox="0 0 89.502 123.772"><circle cx="12.274" cy="12.274" r="12.274" transform="translate(60.312 52.614)" fill="#8ed2d5"/><line y1="22.264" x2="0.101" transform="translate(72.474 64.82)" fill="#3f3d56" stroke="#00989f" stroke-miterlimit="10" stroke-width="2"/><circle cx="3.149" cy="3.149" r="3.149" transform="translate(69.427 61.671)" fill="#00989f"/><path d="M492.965,480.95s-.406-9.676-9.632-8.593" transform="translate(-420.452 -402.408)" fill="#00989f"/><circle cx="12.274" cy="12.274" r="12.274" transform="translate(8.894 27.971)" fill="#8ed2d5"/><line y1="45.326" x2="0.706" transform="translate(20.473 40.231)" fill="#3f3d56" stroke="#00989f" stroke-miterlimit="10" stroke-width="2"/><circle cx="3.149" cy="3.149" r="3.149" transform="translate(18.031 37.083)" fill="#00989f"/><path d="M236.454,353.521s-.3-9.68-9.536-8.7" transform="translate(-215.474 -300.468)" fill="#00989f"/><path d="M234.676,467.88s2.314-18.569-9.365-19.651" transform="translate(-214.189 -383.187)" fill="none" stroke="#00989f" stroke-miterlimit="10" stroke-width="2"/><circle cx="3.149" cy="3.149" r="3.149" transform="translate(7.973 61.893)" fill="#00989f"/><circle cx="12.274" cy="12.274" r="12.274" transform="translate(35.289 0.722)" fill="#8ed2d5"/><line y1="74.264" transform="translate(47.571 13.041)" fill="#3f3d56" stroke="#00989f" stroke-miterlimit="10" stroke-width="2"/><circle cx="3.149" cy="3.149" r="3.149" transform="translate(44.423 9.857)" fill="#00989f"/><circle cx="3.149" cy="3.149" r="3.149" transform="translate(34.752 63.588)" fill="#00989f"/><path d="M368.475,234.575s-.45-9.674-9.67-8.55" transform="translate(-320.904 -205.486)" fill="#00989f"/><path d="M368.475,371.287s-.45-9.674-9.67-8.55" transform="translate(-320.904 -314.773)" fill="#00989f"/><path d="M368.475,476.383s2.024-18.8-9.67-19.7" transform="translate(-320.904 -389.943)" fill="none" stroke="#00989f" stroke-miterlimit="10" stroke-width="2"/><circle cx="3.149" cy="3.149" r="3.149" transform="translate(54.286 34.054)" fill="#00989f"/><path d="M407.442,328.152s-2.024-17.8,9.67-18.7" transform="translate(-359.677 -272.25)" fill="none" stroke="#00989f" stroke-miterlimit="10" stroke-width="2"/><path d="M520.284,238.827a4.413,4.413,0,1,1,4.413-4.413A4.413,4.413,0,0,1,520.284,238.827Zm0-8.425a4.012,4.012,0,1,0,4.012,4.012A4.012,4.012,0,0,0,520.284,230.4Z" transform="translate(-446.462 -208.736)" fill="#00989f"/><path d="M174.284,132.827a4.413,4.413,0,1,1,4.413-4.413A4.413,4.413,0,0,1,174.284,132.827Zm0-8.425a4.012,4.012,0,1,0,4.012,4.012A4.012,4.012,0,0,0,174.284,124.4Z" transform="translate(-169.871 -124)" fill="#00989f"/><circle cx="2.574" cy="2.574" r="2.574" transform="translate(84.355 34.749)" fill="#00989f"/><path d="M252.788,585.917A38.917,38.917,0,0,0,291.7,547H213.871A38.917,38.917,0,0,0,252.788,585.917Z" transform="translate(-205.044 -462.145)" fill="#8ed2d5"/></svg>